<svg width="243" height="83" viewBox="0 0 243 83" fill="none" xmlns="http://www.w3.org/2000/svg">
<path d="M95.1205 61.717V64.017H84.0205C83.8205 64.017 83.7205 64.217 83.7205 64.317V70.517H94.3205V72.817H83.7205V79.517C83.7205 79.717 83.9205 79.817 84.0205 79.817H95.1205V82.117H82.1205C81.4205 82.117 80.9205 81.617 80.9205 80.917V62.817C80.9205 62.217 81.4205 61.617 82.1205 61.617H95.1205V61.717Z" fill="#0071B3"/>
<path d="M101.221 61.717V71.717C101.221 71.817 101.321 71.817 101.321 71.717L111.021 62.117C111.321 61.817 111.821 61.617 112.221 61.617H115.021L106.421 69.917L115.421 82.117H112.321C112.121 82.117 111.921 82.017 111.721 81.817L104.521 71.817L101.121 75.017V82.217H98.4205V61.717H101.221Z" fill="#0071B3"/>
<path d="M120.321 61.717V71.717C120.321 71.817 120.421 71.817 120.421 71.717L130.221 62.117C130.521 61.817 130.921 61.617 131.421 61.617H134.221L125.621 69.917L134.621 82.117H131.521C131.321 82.117 131.121 82.017 130.921 81.817L123.721 71.817L120.321 75.017V82.217H117.621V61.717H120.321Z" fill="#0071B3"/>
<path d="M145.121 82.117H142.421V73.717L134.521 61.617H136.821C137.421 61.617 138.021 61.917 138.321 62.417L143.921 71.317L149.421 62.417C149.721 61.917 150.321 61.617 150.921 61.617H153.021L145.221 73.717V82.117H145.121Z" fill="#0071B3"/>
<path d="M187.721 61.717V70.517H198.521V61.717H201.221V82.217H198.521V72.817H187.721V82.217H185.021V61.717H187.721Z" fill="#0071B3"/>
<path d="M219.921 80.617C218.521 81.917 216.521 82.617 213.921 82.617C211.321 82.617 209.221 82.017 207.721 80.717C206.221 79.417 205.521 77.517 205.521 74.717V61.717H208.221V74.817C208.221 76.617 208.721 78.017 209.721 79.017C210.721 80.017 212.121 80.417 213.921 80.417C215.621 80.417 217.021 79.917 217.921 79.017C218.821 78.117 219.321 76.717 219.321 74.817V61.717H222.021V74.817C222.021 77.317 221.321 79.317 219.921 80.617Z" fill="#0071B3"/>
<path d="M233.821 61.717C234.221 61.717 234.721 61.717 235.221 61.717C235.721 61.717 236.221 61.717 236.721 61.817C237.221 61.817 237.721 61.917 238.121 62.017C238.521 62.117 238.921 62.217 239.221 62.417C239.921 62.817 240.421 63.417 240.921 64.117C241.421 64.817 241.621 65.717 241.621 66.717C241.621 67.817 241.321 68.717 240.821 69.517C240.321 70.317 239.521 70.917 238.621 71.317C239.921 71.617 240.821 72.117 241.521 73.017C242.221 73.917 242.521 74.917 242.521 76.217C242.521 76.917 242.421 77.717 242.121 78.417C241.821 79.117 241.421 79.717 240.921 80.317C240.421 80.817 239.721 81.317 239.021 81.617C238.221 81.917 237.321 82.117 236.321 82.117H226.421V61.717H233.821ZM234.521 70.517C236.021 70.517 237.221 70.217 237.821 69.717C238.521 69.217 238.821 68.317 238.821 67.217C238.821 66.517 238.721 65.917 238.521 65.517C238.321 65.117 238.021 64.817 237.621 64.517C237.221 64.317 236.721 64.117 236.221 64.117C235.721 64.017 235.121 64.017 234.521 64.017H229.121V70.517H234.521ZM235.921 79.817C237.121 79.817 238.021 79.517 238.721 78.817C239.421 78.217 239.721 77.317 239.721 76.117C239.721 75.417 239.621 74.917 239.321 74.417C239.121 74.017 238.721 73.617 238.321 73.417C237.921 73.117 237.421 73.017 236.921 72.917C236.421 72.817 235.821 72.717 235.221 72.717H229.021V79.817H235.921Z" fill="#0071B3"/>
<path d="M178.721 82.117C179.604 82.117 180.321 81.4006 180.321 80.517C180.321 79.6333 179.604 78.917 178.721 78.917C177.837 78.917 177.121 79.6333 177.121 80.517C177.121 81.4006 177.837 82.117 178.721 82.117Z" fill="#0071B3"/>
<path d="M172.121 65.717L170.321 68.017C170.421 68.317 170.521 68.517 170.621 68.817C170.921 69.817 171.021 70.817 171.021 71.917C171.021 72.917 170.921 73.917 170.621 75.017C170.321 76.017 169.921 76.917 169.321 77.717C168.721 78.517 168.021 79.117 167.121 79.617C166.221 80.117 165.121 80.317 163.921 80.317C162.921 80.317 162.021 80.117 161.321 79.817L159.821 81.717C161.021 82.217 162.421 82.517 163.921 82.517C165.521 82.517 166.921 82.217 168.221 81.617C169.421 81.017 170.421 80.217 171.321 79.217C172.121 78.217 172.721 77.117 173.121 75.817C173.521 74.517 173.721 73.217 173.721 71.817C173.721 70.417 173.521 69.117 173.121 67.817C172.821 67.117 172.521 66.417 172.121 65.717Z" fill="#0071B3"/>
<path d="M157.521 80.317L158.621 77.717C158.621 77.717 158.621 77.717 158.521 77.617C157.921 76.817 157.521 75.917 157.221 74.917C156.921 73.917 156.821 72.917 156.821 71.817C156.821 70.817 156.921 69.817 157.221 68.717C157.521 67.717 157.921 66.817 158.521 66.017C159.121 65.217 159.821 64.617 160.721 64.117C161.621 63.617 162.721 63.417 163.921 63.417C164.121 63.417 164.321 63.417 164.421 63.417L165.321 61.217C164.821 61.117 164.421 61.117 163.921 61.117C162.321 61.117 160.921 61.417 159.621 62.017C158.421 62.617 157.421 63.417 156.521 64.417C155.721 65.417 155.121 66.517 154.721 67.817C154.321 69.117 154.121 70.417 154.121 71.817C154.121 73.217 154.321 74.517 154.721 75.817C155.121 77.117 155.721 78.217 156.521 79.217C156.821 79.717 157.121 80.017 157.521 80.317Z" fill="#0071B3"/>
<path d="M53.1205 82.617C57.2074 82.617 60.5205 79.3039 60.5205 75.217C60.5205 71.1301 57.2074 67.817 53.1205 67.817C49.0336 67.817 45.7205 71.1301 45.7205 75.217C45.7205 79.3039 49.0336 82.617 53.1205 82.617Z" fill="#0071B3"/>
<path d="M37.3205 64.317L7.42052 41.417C6.72052 40.817 5.62052 41.017 5.12052 41.917L0.220525 50.417C-0.279475 51.217 0.120524 52.217 0.920524 52.617L35.7205 67.017C37.4205 67.717 38.7205 65.417 37.3205 64.317Z" fill="#0071B3"/>
<path d="M64.0205 59.417L101.221 10.917C102.021 9.91698 101.721 8.31698 100.621 7.71698L87.8205 0.316978C86.7205 -0.383022 85.2205 0.116978 84.7205 1.41698L61.3205 57.917C60.6205 59.617 62.8205 60.917 64.0205 59.417Z" fill="#0071B3"/>
</svg>
