<svg width="140" height="140" viewBox="0 0 140 140" fill="none" xmlns="http://www.w3.org/2000/svg">
<circle cx="70" cy="70" r="70" fill="#0071B3"/>
<path d="M70.1205 111.617C74.2074 111.617 77.5205 108.304 77.5205 104.217C77.5205 100.13 74.2074 96.817 70.1205 96.817C66.0336 96.817 62.7205 100.13 62.7205 104.217C62.7205 108.304 66.0336 111.617 70.1205 111.617Z" fill="white"/>
<path d="M54.3205 93.317L24.4205 70.417C23.7205 69.817 22.6205 70.017 22.1205 70.917L17.2205 79.417C16.7205 80.217 17.1205 81.217 17.9205 81.617L52.7205 96.017C54.4205 96.717 55.7205 94.417 54.3205 93.317Z" fill="white"/>
<path d="M81.0205 88.417L118.221 39.917C119.021 38.917 118.721 37.317 117.621 36.717L104.821 29.317C103.721 28.617 102.221 29.117 101.721 30.417L78.3205 86.917C77.6205 88.617 79.8205 89.917 81.0205 88.417Z" fill="white"/>
</svg>
