<svg width="130" height="130" viewBox="0 0 130 130" fill="none" xmlns="http://www.w3.org/2000/svg">
<circle cx="65" cy="65" r="65" fill="#0071B3"/>
<path d="M66.1205 106.617C70.2074 106.617 73.5205 103.304 73.5205 99.217C73.5205 95.1301 70.2074 91.817 66.1205 91.817C62.0336 91.817 58.7205 95.1301 58.7205 99.217C58.7205 103.304 62.0336 106.617 66.1205 106.617Z" fill="white"/>
<path d="M50.3205 88.317L20.4205 65.417C19.7205 64.817 18.6205 65.017 18.1205 65.917L13.2205 74.417C12.7205 75.217 13.1205 76.217 13.9205 76.617L48.7205 91.017C50.4205 91.717 51.7205 89.417 50.3205 88.317Z" fill="white"/>
<path d="M77.0205 83.417L114.221 34.917C115.021 33.917 114.721 32.317 113.621 31.717L100.821 24.317C99.7205 23.617 98.2205 24.117 97.7205 25.417L74.3205 81.917C73.6205 83.617 75.8205 84.917 77.0205 83.417Z" fill="white"/>
</svg>
