<svg width="102" height="83" viewBox="0 0 102 83" fill="none" xmlns="http://www.w3.org/2000/svg">
<path d="M53.1205 82.617C57.2074 82.617 60.5205 79.3039 60.5205 75.217C60.5205 71.1301 57.2074 67.817 53.1205 67.817C49.0336 67.817 45.7205 71.1301 45.7205 75.217C45.7205 79.3039 49.0336 82.617 53.1205 82.617Z" fill="white"/>
<path d="M37.3205 64.317L7.42052 41.417C6.72052 40.817 5.62052 41.017 5.12052 41.917L0.220525 50.417C-0.279475 51.217 0.120524 52.217 0.920524 52.617L35.7205 67.017C37.4205 67.717 38.7205 65.417 37.3205 64.317Z" fill="white"/>
<path d="M64.0205 59.417L101.221 10.917C102.021 9.91698 101.721 8.31698 100.621 7.71698L87.8205 0.316978C86.7205 -0.383022 85.2205 0.116978 84.7205 1.41698L61.3205 57.917C60.6205 59.617 62.8205 60.917 64.0205 59.417Z" fill="white"/>
</svg>
